<?xml version="1.0" encoding="UTF-8" standalone="no"?>
<!-- Created with Inkscape (http://www.inkscape.org/) -->

<svg
   width="163.27019mm"
   height="98.881836mm"
   viewBox="0 0 163.27019 98.881836"
   version="1.1"
   id="svg5"
   xml:space="preserve"
   xmlns:inkscape="http://www.inkscape.org/namespaces/inkscape"
   xmlns:sodipodi="http://sodipodi.sourceforge.net/DTD/sodipodi-0.dtd"
   xmlns="http://www.w3.org/2000/svg"
   xmlns:svg="http://www.w3.org/2000/svg"><sodipodi:namedview
     id="namedview7"
     pagecolor="#ffffff"
     bordercolor="#000000"
     borderopacity="0.25"
     inkscape:showpageshadow="2"
     inkscape:pageopacity="0.0"
     inkscape:pagecheckerboard="0"
     inkscape:deskcolor="#d1d1d1"
     inkscape:document-units="mm"
     showgrid="false" /><defs
     id="defs2" /><g
     inkscape:label="Layer 1"
     inkscape:groupmode="layer"
     id="layer1"
     transform="translate(-1.8028723,-2.0183072)"><path
       style="fill:#000000;stroke-width:0.352778"
       d="m 125.82027,100.80906 c -0.0937,-0.15164 0.39624,-0.36766 1.0888,-0.48004 2.17546,-0.353028 2.9467,-1.657958 1.63721,-2.770128 -0.78264,-0.66471 -5.26573,-1.94126 -8.35281,-2.37844 -1.3018,-0.18436 -2.57007,-0.50379 -2.81835,-0.70985 -0.28277,-0.23467 -0.46996,-1.34968 -0.50103,-2.98439 l -0.0496,-2.60975 1.4081,-1.27213 c 0.77445,-0.69967 1.71606,-1.27213 2.09247,-1.27213 0.94912,0 3.25236,-1.41128 3.09382,-1.8957 -0.48718,-1.48852 -14.09501,-3.2294 -15.58621,-1.99397 -0.34524,0.28603 -1.91123,0.68478 -3.47997,0.88611 -2.60049,0.33375 -2.87028,0.44238 -3.05638,1.23071 -0.27849,1.17969 -1.744773,1.44798 -8.292393,1.51724 -5.82399,0.0616 -11.28107,-0.52666 -12.14591,-1.30933 -0.44279,-0.40073 -2.310686,-0.52703 -9.110726,-0.61609 -4.70456,-0.0616 -8.5536,0.0134 -8.55341,0.16661 1.8e-4,0.15325 0.3284,0.92174 0.72939,1.70773 0.6949,1.36213 0.70387,1.52839 0.19142,3.54766 -0.54388,2.14314 -1.07405,3.10903 -1.70651,3.10903 -0.19076,0 -0.8185,-0.39687 -1.39498,-0.88194 -1.06737,-0.89814 -3.54918,-1.24665 -3.97469,-0.55816 -0.41367,0.66932 -4.198397,0.3215 -5.915218,-0.54363 -0.91518,-0.46117 -2.058229,-0.83849 -2.540109,-0.83849 -0.481877,0 -1.003092,-0.214 -1.158254,-0.47556 -0.155163,-0.26156 -0.985118,-0.69812 -1.844344,-0.97014 -0.859225,-0.27202 -1.616247,-0.6622 -1.682266,-0.86708 -0.139753,-0.43368 2.073253,-1.56778 3.059257,-1.56778 0.370021,0 0.770879,-0.15875 0.890795,-0.35277 0.242045,-0.39164 0.317761,-0.38834 -12.876388,-0.56004 -15.092611,-0.1964 -30.1000613,-0.76084 -31.1583073,-1.17189 -2.787234,-1.08263 1.048457,-2.64865 7.5217543,-3.07094 1.863737,-0.12159 3.698718,-0.43525 4.133169,-0.70651 0.429736,-0.26832 1.540986,-0.488 2.469445,-0.48819 l 1.688106,-3.5e-4 0.02787,-1.85173 c 0.02288,-1.52016 0.324892,-2.38411 1.686574,-4.824762 0.912286,-1.63516 1.97772,-3.196467 2.367632,-3.469573 0.448855,-0.314389 0.634948,-0.729654 0.507263,-1.131951 -0.123949,-0.390532 0.142463,-1.044377 0.691301,-1.696632 0.491132,-0.583678 0.892968,-1.257698 0.892968,-1.49782 0,-0.240122 0.540156,-0.94602 1.200346,-1.568658 0.66019,-0.622639 1.618252,-1.95677 2.129028,-2.964737 1.161097,-2.291317 3.082743,-4.450528 5.110474,-5.742259 l 1.560682,-0.994209 0.152725,-3.250512 0.152724,-3.250512 -1.18424,0.901678 c -0.65133,0.495925 -1.819239,1.225907 -2.59535,1.622182 -0.776111,0.396275 -2.244549,1.385185 -3.263195,2.197576 -1.723144,1.374242 -1.852083,1.583722 -1.852083,3.008962 0,2.002758 -1.282382,3.162557 -3.175,2.871505 -2.631797,-0.404728 -5.854578,-0.949706 -6.572573,-1.111437 -1.147204,-0.258406 -1.929655,-2.244023 -1.688158,-4.284017 0.257734,-2.17715 0.769308,-3.22235 1.896999,-3.875775 l 0.895677,-0.518986 -1.058334,0.185724 c -5.905798,1.036387 -5.755408,1.037685 -11.6416663,-0.100482 -1.958254,-0.378647 -2.902271,-0.957174 -3.524126,-2.159709 -1.275325,-2.466209 -0.239276,-5.073555 2.519516,-6.340676 0.940591,-0.432015 2.027666,-0.935937 2.415721,-1.119822 0.388056,-0.183889 1.896181,-1.449656 3.3513893,-2.812821 1.455208,-1.363162 3.092961,-2.746225 3.639451,-3.073471 0.801476,-0.479938 0.951501,-0.76554 0.775822,-1.476939 -0.94094,-3.810283 -0.466435,-6.533576 1.384378,-7.945261 1.114046,-0.849723 1.143795,-0.936504 0.814992,-2.377355 -0.46111,-2.020635 0.143347,-4.128302 1.63866,-5.713795 0.791543,-0.83928 1.495547,-1.249699 2.143647,-1.249699 h 0.965028 l -1.075633,1.225079 c -1.268308,1.444523 -2.285418,4.419365 -1.510998,4.419365 0.169774,0 0.396159,-0.436563 0.503079,-0.970139 0.341069,-1.702098 2.275,-3.960327 4.126038,-4.817925 2.185394,-1.012507 4.234424,-2.567489 4.234424,-3.213447 0,-0.274416 0.511002,-1.0809368 1.135559,-1.7922678 l 1.135559,-1.29333 2.656803,0.215593 c 4.92542,0.399688 17.215488,4.4064088 24.022017,7.8314878 2.25253,1.133487 2.56295,1.601575 2.26169,3.410466 -0.33226,1.994978 -3.09676,7.342583 -3.55759,6.881746 -0.0905,-0.09046 0.31285,-0.938898 0.89625,-1.885413 1.67663,-2.720214 2.12036,-4.047883 1.69523,-5.072327 -0.36358,-0.87615 -0.36756,-0.873832 -0.60507,0.352778 -0.13149,0.679097 -0.82568,2.389218 -1.54263,3.800269 -1.15503,2.273251 -1.38032,2.524453 -1.97749,2.204861 -0.37067,-0.198377 -0.986439,-0.360686 -1.368378,-0.360686 -0.614987,0 -0.514261,-0.312779 0.880448,-2.734027 1.30045,-2.257608 1.54621,-2.964553 1.41036,-4.056945 -0.19031,-1.530389 -0.006,-1.702239 0.47391,-0.440972 0.32645,0.858641 1.76389,1.289871 1.76389,0.529167 0,-0.194028 0.24749,-0.352778 0.54998,-0.352778 3.07376,0 -11.162956,-5.856376 -19.070816,-7.844921 -5.407998,-1.3599188 -6.879166,-1.6455438 -6.879166,-1.3355828 0,0.137367 1.468437,0.606117 3.263194,1.041666 4.287058,1.0403758 12.008061,4.0252648 15.875,6.1371698 2.433158,1.328852 3.086748,1.85001 3.086528,2.461115 -2.7e-4,0.760742 -1.924277,5.184997 -2.254834,5.184997 -0.09262,0 -0.597041,-0.162967 -1.12093,-0.36215 -0.743338,-0.282617 -1.155128,-0.233269 -1.875049,0.224701 -1.054506,0.670814 -2.479361,2.259929 -2.495582,2.783283 -0.006,0.194027 0.377515,-0.123473 0.852287,-0.705556 l 0.863222,-1.058333 -0.393964,1.319555 c -0.294429,0.986157 -0.289913,1.547928 0.01789,2.223433 0.252112,0.553324 0.326901,1.626526 0.192842,2.767173 -0.205507,1.748522 -0.156916,1.912126 0.788808,2.656033 0.688364,0.541466 1.357069,0.751963 2.109702,0.664097 l 1.101902,-0.128641 -1.492674,1.492676 c -0.82097,0.82097 -1.910319,1.597494 -2.420775,1.725612 -1.027564,0.257902 -1.117208,0.541214 -0.531241,1.678947 0.665223,1.291612 1.805679,2.358059 2.521705,2.358059 0.373405,0 1.122483,0.474842 1.664624,1.055204 l 0.985707,1.055208 1.66139,-0.734914 c 1.20953,-0.53503 2.01138,-0.670521 2.94819,-0.498161 1.90817,0.351074 3.98355,1.34863 5.40824,2.59952 0.69486,0.610091 1.40116,1.10925 1.56958,1.109243 0.16841,-7e-6 0.74953,-0.555632 1.29138,-1.234722 1.01857,-1.276562 2.5075,-1.657872 3.31611,-0.849253 0.27877,0.278762 0.59485,0.273403 1.14188,-0.01937 0.59492,-0.318393 0.99116,-0.287711 1.85596,0.143707 0.60475,0.301689 1.37135,0.548528 1.70354,0.548528 0.3322,0 1.50906,0.869621 2.61525,1.932495 l 2.01126,1.932495 0.774126,-0.899978 c 0.62343,-0.724785 1.19615,-0.938251 2.94202,-1.09656 1.19234,-0.108116 2.62975,-0.03557 3.19425,0.161216 0.96598,0.336744 1.12383,0.247233 2.68336,-1.521633 2.37892,-2.698231 5.14727,-3.978716 9.69231,-4.483125 3.020403,-0.335202 3.947033,-0.306426 6.253963,0.194194 3.14483,0.682456 5.94232,1.89605 7.28021,3.158275 l 0.94109,0.887857 2.025,-2.337481 c 2.47781,-2.860146 3.47693,-4.943584 3.16586,-6.601703 -0.69646,-3.71247 3.03354,-7.893647 7.05168,-7.90464 0.39554,-0.0011 1.34804,0.326782 2.11667,0.728587 0.88938,0.464929 2.38299,0.803339 4.1079,0.930734 2.35503,0.173933 2.87803,0.101274 3.98892,-0.554166 1.63989,-0.967559 3.68048,-0.978349 4.89137,-0.02587 1.92319,1.512781 2.70553,-0.519923 3.00892,-7.81793 0.22075,-5.309859 0.26855,-5.577923 1.36942,-7.678073 0.62737,-1.19686 1.14068,-2.578554 1.14068,-3.070422 0,-1.2234938 0.75835,-2.5690618 2.26296,-4.0152778 0.69565,-0.668652 1.26482,-1.480681 1.26482,-1.804508 0,-0.865109 1.36152,-2.447816 2.10572,-2.447816 0.88241,0 2.70999,2.16387 3.02011,3.575831 0.13998,0.637337 0.57954,1.598418 0.9768,2.135736 0.63671,0.8612 0.67823,1.169425 0.35049,2.6016728 -0.28643,1.251693 -0.26398,1.840854 0.0978,2.566015 0.57568,1.153984 0.21515,3.067816 -0.86322,4.582245 -0.41184,0.578371 -0.74879,1.308043 -0.74879,1.621495 0,0.313452 -0.41096,1.558946 -0.91324,2.767764 -0.50228,1.208818 -1.04953,3.309101 -1.21613,4.667295 -0.16659,1.358195 -0.7966,3.97757 -1.40003,5.820834 -0.70848,2.164175 -1.19392,4.538602 -1.37033,6.702777 -0.48657,5.969116 -1.55709,6.925493 -6.47736,5.786727 -0.8542,-0.1977 -0.97014,-0.121874 -0.97014,0.634506 0,0.472472 -0.24411,1.681053 -0.54247,2.685736 -0.29835,1.004683 -0.68477,3.771931 -0.85869,6.149445 -0.21583,2.950351 -0.60361,5.217404 -1.22142,7.140699 -1.11448,3.469467 -1.11525,3.618057 -0.0232,4.477025 1.00604,0.791351 1.19032,2.41688 0.35278,3.111972 -0.63762,0.529181 -0.6854,1.272914 -0.10482,1.631732 0.23339,0.144243 2.05885,0.378925 4.05658,0.521514 1.99772,0.142586 4.41872,0.520482 5.38,0.839767 1.6288,0.541002 1.89298,0.539778 3.88083,-0.01799 2.68746,-0.754059 4.632,-0.514332 6.51494,0.803173 0.79152,0.553831 2.15351,1.216704 3.02664,1.473044 2.01763,0.59235 2.46944,0.97166 2.46944,2.0732 0,0.48843 0.26153,1.07929 0.58119,1.31303 0.77574,0.56723 0.35681,2.30391 -0.61721,2.55862 -0.42285,0.11058 -0.63367,0.38297 -0.52188,0.6743 0.15873,0.41364 -2.25151,0.46192 -15.67865,0.31403 -14.63409,-0.16117 -16.74175,-0.0672 -15.51345,0.69197 0.56601,0.34981 0.40873,1.85872 -0.34846,3.34293 -0.4731,0.92734 -0.6314,1.72376 -0.48656,2.44792 0.18872,0.94361 0.0922,1.12049 -0.79807,1.46302 -0.55701,0.2143 -2.17714,0.59398 -3.6003,0.84373 -2.87826,0.50511 -4.14275,1.29176 -3.00985,1.87244 0.36219,0.18564 1.17765,0.43593 1.81214,0.5562 2.10462,0.39895 4.99992,2.058 5.77219,3.30756 0.64304,1.04047 0.67862,1.31833 0.28919,2.2585 -0.24424,0.58964 -0.8227,1.32016 -1.28548,1.62338 -1.04128,0.682278 -4.631,1.546568 -4.86317,1.170898 z m 5.25289,-3.014628 c 0.47774,-1.90347 -0.77481,-3.11712 -4.73174,-4.58479 -3.55271,-1.31774 -4.23333,-1.69475 -4.23333,-2.3449 0,-0.35859 0.23812,-0.65198 0.52916,-0.65198 0.29104,0 0.52917,-0.14109 0.52917,-0.31352 0,-0.29916 2.0083,-0.87462 3.21764,-0.92197 0.31449,-0.0123 1.18762,-0.49288 1.94028,-1.06792 0.75265,-0.57504 1.47191,-1.0116 1.59834,-0.97013 0.39816,0.13059 1.35763,-2.25358 1.35763,-3.37354 0,-0.58982 -0.16134,-1.17211 -0.35853,-1.29398 -0.1972,-0.12187 -0.28146,-0.34629 -0.18727,-0.49871 0.47122,-0.76244 -3.91599,-3.36196 -6.5452,-3.87819 -0.85363,-0.16761 -1.31393,-0.34711 -1.02289,-0.3989 0.56775,-0.10102 -2.36191,-0.48313 -6.79097,-0.88574 -1.50372,-0.13669 -2.73403,-0.35375 -2.73403,-0.48237 0,-0.12861 -0.83344,-0.24425 -1.85208,-0.25696 -1.28815,-0.0161 -2.01321,0.15285 -2.38125,0.55481 -0.29105,0.31787 -1.21118,1.10852 -2.04474,1.757 -0.83357,0.64849 -1.44606,1.24858 -1.3611,1.33354 0.16112,0.16112 1.23916,0.26027 7.11,0.65389 1.94028,0.13009 4.79778,0.47115 6.35,0.75791 1.55222,0.28676 3.26122,0.58533 3.79778,0.66349 1.30565,0.19019 3.07114,1.12853 3.31397,1.76135 0.30042,0.78289 -0.18472,2.27383 -0.73988,2.27383 -0.27162,0 -1.02266,0.26569 -1.66897,0.59043 -2.45339,1.23269 -2.94913,1.46406 -3.29179,1.53634 -1.07121,0.22597 -1.93273,0.74179 -2.43384,1.45723 -0.729,1.0408 -0.75121,2.766 -0.0356,2.766 0.29104,0 0.52917,0.21868 0.52917,0.48597 0,0.69101 0.93267,1.37527 2.04601,1.50107 1.29906,0.14678 5.45418,1.10604 6.47298,1.49436 1.04601,0.39869 2.76989,2.10416 2.76989,2.74031 0,0.82116 0.61723,0.52825 0.85119,-0.40393 z m -68.092429,-6.25876 c 0.92683,-3.4881 0.92812,-3.70289 0.0337,-5.62409 -0.47943,-1.02983 -0.87887,-2.34868 -0.88765,-2.93077 -0.0225,-1.49667 -0.63663,-2.42734 -2.46039,-3.7288 -0.87312,-0.62308 -2.55682,-2.05429 -3.74154,-3.18048 -2.37778,-2.26028 -3.280853,-2.630223 -5.579352,-2.28553 -1.31264,0.19684 -1.636948,0.4142 -2.112147,1.4156 -0.660414,1.39172 -0.71597,3.95021 -0.107925,4.97018 0.531548,0.89165 3.695573,3.80932 4.697052,4.33133 0.624886,0.32572 0.706099,0.59563 0.519003,1.72497 l -0.221805,1.33884 h -1.753722 c -1.551129,0 -1.766771,0.0919 -1.866664,0.79533 -0.07463,0.52557 0.10485,0.86335 0.529167,0.99589 0.353159,0.11031 0.917727,0.3477 1.254598,0.52754 0.392151,0.20935 1.186737,0.17339 2.20877,-0.1 1.392085,-0.37232 1.640655,-0.58667 1.943175,-1.67564 0.1908,-0.68679 0.34779,-1.42254 0.34887,-1.635 0.001,-0.21246 0.31947,-0.67363 0.70752,-1.02481 0.38806,-0.35119 0.70556,-0.85204 0.70556,-1.11301 0,-0.26097 0.15875,-0.47449 0.35278,-0.47449 0.63811,0 0.36871,1.00479 -0.52917,1.97361 -0.48507,0.5234 -0.88194,1.31786 -0.88194,1.76547 0,1.05976 -0.71264,2.60943 -1.20316,2.61632 -0.51041,0.007 0.55537,0.6878 1.08789,0.69475 0.22765,0.003 0.90234,-0.40558 1.49931,-0.9079 0.89472,-0.75286 1.0854,-1.17356 1.0854,-2.39479 0,-0.81482 0.32589,-2.34852 0.7242,-3.40823 l 0.7242,-1.92673 -0.17909,1.60858 c -0.13005,1.16816 -0.006,1.89259 0.45127,2.64584 0.34669,0.57048 0.73219,1.89841 0.85667,2.95094 0.20455,1.72952 0.62457,2.47538 1.40257,2.49063 0.15161,0.003 0.32838,-0.19304 0.39283,-0.43558 z m -2.25598,-2.88959 c 0,-0.27959 -0.15875,-0.60646 -0.35278,-0.72638 -0.19403,-0.11991 -0.35278,0.10884 -0.35278,0.50835 0,0.3995 0.15875,0.72637 0.35278,0.72637 0.19403,0 0.35278,-0.22875 0.35278,-0.50834 z m 33.847316,-5.30053 c 0.16074,-0.0994 0.0634,-0.84481 -0.21625,-1.6566 -0.27969,-0.81179 -0.71574,-2.97323 -0.96901,-4.80321 -0.26183,-1.89182 -0.65795,-3.449273 -0.9182,-3.610113 -0.25173,-0.15558 -1.86145,-0.393973 -3.57716,-0.529768 -1.71571,-0.135791 -3.11947,-0.377751 -3.11947,-0.537686 0,-0.159935 -0.35719,-0.359586 -0.79375,-0.443674 -0.43657,-0.08409 0.3175,-0.150658 1.67569,-0.147938 2.1549,0.0043 2.26724,0.03387 0.88194,0.23205 -1.45265,0.207818 -1.3178,0.251901 1.5875,0.518982 4.03321,0.37077 4.40973,0.567517 4.40973,2.304327 0,1.60154 0.82708,6.09778 1.39142,7.56407 0.64597,1.67842 0.80773,0.78654 0.22593,-1.24573 -0.29758,-1.0395 -0.70966,-3.08063 -0.91572,-4.53584 -0.63524,-4.486026 -0.44302,-4.181731 -2.73243,-4.325481 l -2.02615,-0.127219 2.17985,-0.06671 2.17985,-0.0667 0.34234,1.85209 c 0.18829,1.01864 0.51623,2.88395 0.72875,4.14514 0.21252,1.26118 0.56326,2.92394 0.77941,3.69502 l 0.39301,1.40197 0.84354,-0.98067 c 1.01298,-1.17767 1.00249,-0.71532 0.15301,-6.74468 -0.42683,-3.029568 -0.88814,-5.098719 -1.20805,-5.418632 -0.71551,-0.715507 -13.24507,-1.025811 -13.6811,-0.338818 -0.58333,0.919092 -0.21326,1.356878 3.21774,3.806467 3.70488,2.645133 5.16596,4.390723 4.82204,5.761023 -0.11141,0.4439 -0.99843,1.58859 -1.97116,2.54374 -1.50325,1.4761 -1.67666,1.77682 -1.15585,2.0044 0.63713,0.27842 6.95986,0.067 7.47255,-0.24981 z m -7.19483,-2.05561 c 1.25141,-1.22101 2.27529,-2.47884 2.27529,-2.79515 0,-0.93518 -1.60427,-2.57228 -4.8706,-4.970283 -1.68679,-1.23837 -3.28477,-2.514498 -3.55107,-2.835836 -0.3564,-0.430078 -1.06715,-0.584249 -2.693446,-0.584249 -1.96729,0 -2.27259,-0.09661 -2.78716,-0.881945 -0.31784,-0.485069 -0.73297,-0.881944 -0.92252,-0.881944 -0.43637,0 -0.44351,3.178023 -0.009,3.865439 0.37314,0.589901 4.436016,1.099245 4.918626,0.616627 0.17446,-0.174452 0.47668,0.665828 0.69933,1.944341 0.21564,1.23836 0.62954,3.05116 0.91977,4.02846 0.61347,2.06577 2.41159,4.71458 3.20044,4.71458 0.2996,0 1.5686,-0.99902 2.82001,-2.22004 z m -2.24969,0.91484 c 0.64547,-0.52384 1.24036,-1.00072 1.32197,-1.05973 0.0816,-0.059 -0.23351,-0.54323 -0.70027,-1.07604 -0.46676,-0.53281 -0.62084,-0.77031 -0.34241,-0.52778 0.68445,0.5962 1.73606,0.61245 1.14125,0.0176 -0.23284,-0.23283 -0.4108,-0.6694 -0.39549,-0.97014 0.0169,-0.33279 0.0949,-0.38197 0.19919,-0.12565 0.0942,0.23163 0.38531,0.33904 0.64684,0.23868 0.26728,-0.10257 0.54836,0.0992 0.64184,0.46079 0.0915,0.35379 0.18474,0.0945 0.20725,-0.57629 0.0356,-1.0618 -0.24429,-1.48777 -2.16394,-3.29305 l -2.20486,-2.073503 1.94028,1.326343 c 3.99728,2.73247 4.40599,3.44595 3.01712,5.26685 -0.83586,1.09587 -3.69609,3.3443 -4.25428,3.3443 -0.12545,0 0.30003,-0.42859 0.94551,-0.95242 z m -49.273629,0.60295 c 1.358195,-0.18023 3.283483,-0.57259 4.278418,-0.87192 l 1.808974,-0.54423 0.187191,-3.08594 c 0.102958,-1.69726 0.294743,-3.42446 0.426184,-3.8382 0.219474,-0.69082 0.05409,-0.78446 -2.025064,-1.146533 -2.869378,-0.499677 -6.770825,-0.504923 -9.068364,-0.0122 -1.684875,0.361343 -3.359579,0.27211 -2.133727,-0.11369 2.683933,-0.844692 3.679115,-1.251568 3.776616,-1.544067 0.06297,-0.188923 -0.483193,-0.68991 -1.2137,-1.113303 -0.730508,-0.423397 -1.113091,-0.773458 -0.850187,-0.777914 0.2629,-0.0044 1.168255,0.45774 2.011895,1.027105 1.439474,0.97149 3.476297,1.349686 3.866719,0.717967 0.275795,-0.446243 -1.366036,-2.512914 -2.830727,-3.563214 -0.777145,-0.557276 -2.32005,-1.203484 -3.428679,-1.436021 -1.747485,-0.36654 -2.18287,-0.343069 -3.272182,0.176385 -2.32852,1.110396 -1.977557,2.30675 0.705522,2.404971 1.26768,0.04641 1.212777,0.07726 -0.540152,0.30347 -1.336021,0.172417 -2.233076,0.519338 -2.845041,1.100275 -1.467933,1.3935 -3.575421,5.210109 -3.751268,6.793449 -0.210395,1.89441 0.487934,2.53382 4.490628,4.11173 4.245553,1.67366 6.316662,1.95464 10.406944,1.41186 z M 27.210863,72.230397 c 0,-0.680844 3.2892,-1.033516 3.683832,-0.394985 0.108734,0.175934 -0.09946,0.242172 -0.462657,0.147193 -0.363195,-0.09498 -1.236539,-0.01358 -1.940764,0.180852 -0.704226,0.194444 -1.280411,0.224568 -1.280411,0.06694 z m 52.801694,10.218775 c -2.836776,-0.36264 -3.299666,-0.96734 -0.59049,-0.77138 1.82654,0.13212 2.09718,0.0755 1.91445,-0.40072 -0.1471,-0.38332 -0.77385,-0.5872 -2.02944,-0.66015 l -1.816616,-0.10555 -0.93519,-2.3298 c -0.51436,-1.28139 -1.04993,-2.86889 -1.19017,-3.52778 -0.14025,-0.65889 -0.51513,-1.493633 -0.83308,-1.854979 -0.7854,-0.892588 -0.70164,-7.958074 0.13264,-11.189084 0.66155,-2.56208 1.89702,-5.618723 2.23767,-5.536184 0.12463,0.0302 1.06784,-0.134253 2.09604,-0.365442 1.028186,-0.23119 2.298186,-0.423736 2.822216,-0.427884 0.8587,-0.0068 1.03273,-0.241918 1.7625,-2.38125 1.21055,-3.548737 1.2869,-3.998422 0.73788,-4.34611 -0.36549,-0.231464 -0.28846,-0.31122 0.30448,-0.315256 0.43656,-0.0028 0.79375,-0.164151 0.79375,-0.358179 0,-0.527163 -2.94043,-0.425693 -3.69708,0.127582 -0.36131,0.264199 -0.92295,0.4108 -1.24807,0.325777 -0.35567,-0.09301 -0.9549,0.277727 -1.504376,0.930751 -0.6515,0.774252 -1.22107,1.085335 -1.9872,1.085335 -0.89486,0 -1.19206,0.231549 -1.78235,1.388596 -0.47725,0.935489 -0.63879,1.736669 -0.49506,2.455309 0.17558,0.877895 0.0191,1.260955 -0.88396,2.16402 -0.70476,0.704755 -1.37347,1.056869 -1.86928,0.984275 -0.48255,-0.07066 -1.14111,0.257256 -1.7566,0.874649 -0.83674,0.839343 -1.09644,0.92784 -1.72912,0.589244 -0.59321,-0.317478 -0.87446,-0.280821 -1.38411,0.180411 -0.5023,0.454579 -0.68059,0.479548 -0.83044,0.116311 -0.19238,-0.466344 -0.45208,-0.233479 -1.84475,1.654129 -0.30442,0.412602 -0.24513,0.119648 0.14278,-0.705556 0.80663,-1.715928 0.65265,-2.293055 -0.6118,-2.293055 -1.96104,0 -2.21756,-0.545197 -2.0812,-4.423294 0.068,-1.932813 0.2475,-3.772566 0.39897,-4.088338 0.22145,-0.461669 0.0121,-0.622349 -1.06867,-0.820286 -1.55737,-0.285213 -4.34269,-1.588449 -4.34269,-2.031915 0,-0.166462 0.28043,-0.152576 0.62318,0.03087 0.34275,0.183434 1.81119,0.579681 3.2632,0.880551 2.18206,0.452148 2.72071,0.466545 3.10525,0.08301 0.38488,-0.383892 0.17697,-0.717761 -1.20398,-1.933317 -2.09996,-1.848464 -4.69044,-2.684752 -6.82833,-2.204403 -0.81603,0.183353 -1.56033,0.410002 -1.654,0.503668 -0.0937,0.09366 0.2362,0.576795 0.73302,1.073623 0.49684,0.496831 0.90333,1.131383 0.90333,1.410116 0,0.278737 0.63407,1.274107 1.40905,2.211934 1.13057,1.368154 3.88265,6.001833 3.88261,6.537156 -10e-6,0.06864 -2.71147,0.129007 -6.02547,0.134151 -3.544346,0.0055 -5.614351,-0.105544 -5.027075,-0.269667 0.549113,-0.153458 2.982761,-0.268415 5.408105,-0.255461 2.42535,0.01295 4.5381,0.01524 4.695,0.0051 0.42889,-0.02776 -1.77332,-3.992544 -2.97392,-5.354097 -0.84819,-0.961909 -0.96778,-1.02126 -0.62222,-0.308818 0.37458,0.772276 0.36167,0.827454 -0.10379,0.443731 -0.44125,-0.363774 -0.59789,-0.29263 -0.92204,0.418807 -0.21476,0.47136 -1.20644,1.501997 -2.203709,2.290297 l -1.813232,1.433269 2.942091,0.05532 2.9421,0.05532 -3.52778,0.24136 c -2.628713,0.179853 -4.112165,0.483955 -5.82083,1.193246 -1.26118,0.523537 -3.368918,1.137455 -4.683865,1.364266 -1.932566,0.33334 -2.346474,0.516633 -2.159494,0.956296 0.127222,0.299152 0.304334,0.940788 0.393583,1.425857 0.161862,0.879733 0.160546,0.879454 -0.525818,-0.110737 -0.754631,-1.08869 -2.624159,-2.468749 -3.880249,-2.864354 -1.941491,-0.61147 -4.613324,1.163422 -6.080449,4.039228 -0.98845,1.937519 -0.928946,2.816419 0.19068,2.816419 2.086698,0 6.022925,2.467475 7.086377,4.442184 0.356105,0.661243 0.773264,1.20226 0.927026,1.20226 0.153758,0 0.951096,-0.435688 1.771858,-0.968195 1.452809,-0.942573 1.632317,-0.968883 6.783962,-0.994304 2.910417,-0.01436 5.609167,-0.136628 5.997219,-0.271706 0.38806,-0.135075 0.14993,0.01556 -0.529163,0.334768 -0.763792,0.359008 -2.512956,0.640115 -4.586111,0.737027 -4.388372,0.205137 -4.676031,0.326344 -2.881581,1.214166 0.812747,0.402117 2.150777,1.50568 2.973402,2.452363 1.29909,1.495001 1.672611,1.721763 2.841787,1.725228 1.754766,0.0052 2.457706,0.39873 5.003896,2.801381 1.16416,1.09853 2.87072,2.53294 3.79236,3.18755 0.92163,0.65462 1.67569,1.30622 1.67569,1.44801 0,0.27481 2.35531,0.85145 4.89277,1.19786 1.68101,0.22949 6.43799,-0.10674 7.07434,-0.50003 0.27651,-0.17089 0.13551,-0.83496 -0.46615,-2.19543 -2.1003,-4.74915 -2.16291,-11.615973 -0.17223,-18.890589 0.86848,-3.17373 2.82753,-7.524545 3.70045,-8.218269 0.63609,-0.505509 0.63768,-0.491652 0.0492,0.430424 -1.16153,1.820104 -2.71565,6.268456 -3.45143,9.87897 -1.74101,8.54329 -0.52941,16.055034 3.24051,20.090754 0.83753,0.89657 1.15842,0.99897 3.001126,0.95766 l 2.06332,-0.0463 z M 77.791081,54.067153 c -0.1087,-0.283273 0.20229,-1.388618 0.6911,-2.456314 0.653436,-1.427296 1.128996,-2.001572 1.796206,-2.169029 1.09293,-0.274309 2.67136,0.07122 2.67136,0.584775 0,0.203405 -0.29653,0.275713 -0.65896,0.160683 -1.24586,-0.395421 -2.36554,0.371292 -3.01122,2.06199 -0.338316,0.885871 -0.514676,1.773184 -0.391926,1.971809 0.12276,0.198624 -0.0293,0.361135 -0.33786,0.361135 -0.30858,0 -0.65,-0.231772 -0.7587,-0.515049 z m -19.80036,-0.08091 c 0.33955,-0.08873 0.89518,-0.08873 1.23472,0 0.33955,0.08873 0.0617,0.161336 -0.61736,0.161336 -0.67909,0 -0.95691,-0.0726 -0.61736,-0.161336 z m 0.2221,-1.608903 c -0.23104,-0.436563 -0.65025,-1.190625 -0.93157,-1.675695 -0.49069,-0.846077 -0.48736,-0.853253 0.0818,-0.176388 0.70313,0.836206 1.69001,2.645833 1.44291,2.645833 -0.0952,0 -0.36207,-0.357188 -0.59312,-0.79375 z M 45.008138,80.169922 c -0.708074,-1.69466 -0.638775,-4.19101 0.162377,-5.8492 l 0.67354,-1.394076 H 44.98894 c -1.354554,0 -2.252941,1.818416 -2.254536,4.563376 -0.0011,1.8466 0.141841,2.42271 0.765729,3.08681 0.42188,0.44907 1.048777,0.81648 1.393112,0.81648 0.577473,0 0.586391,-0.0949 0.114893,-1.22339 z m 2.284582,0.11559 c -0.52542,-0.98176 -0.145398,-3.87507 0.735855,-5.60247 0.731848,-1.434543 0.633427,-1.756396 -0.537111,-1.756396 -2.368536,0 -3.34851,5.262986 -1.384141,7.433586 0.882936,0.97563 1.719315,0.92291 1.185397,-0.0747 z m 54.40956,-0.26535 c 6.38047,-2.90937 13.89853,-10.292378 18.05915,-17.734712 1.89301,-3.386144 3.63391,-9.034402 4.4402,-14.406026 0.39318,-2.619375 0.99289,-5.953125 1.3327,-7.408333 0.60559,-2.593446 0.62145,-2.617893 0.80065,-1.234722 l 0.18283,1.411111 0.65018,-1.357214 c 0.44575,-0.930458 0.5797,-1.732996 0.42599,-2.552319 -0.17579,-0.937034 -0.11799,-1.154345 0.26765,-1.006362 0.29953,0.114939 0.4296,0.514414 0.33265,1.021585 -0.0876,0.458064 -0.0217,1.078537 0.14634,1.378828 0.25319,0.452424 0.45091,0.472924 1.15379,0.119624 1.1996,-0.602975 1.26819,-1.184674 0.17213,-1.459767 -0.51641,-0.12961 -0.87,-0.304591 -0.78575,-0.388845 0.0843,-0.08425 0.64417,-0.01238 1.24425,0.159727 0.90642,0.259955 1.32038,0.156944 2.44608,-0.608704 1.38527,-0.94219 3.22665,-1.196307 4.48149,-0.618462 1.47831,0.680755 -0.33248,-3.554987 -1.872,-4.37891 -0.40088,-0.214544 -1.37185,-0.221129 -2.6213,-0.01778 -2.29102,0.372874 -5.48352,-0.03828 -6.65197,-0.856699 -1.16394,-0.815256 -3.47926,-0.692377 -4.89361,0.259714 -1.61122,1.08461 -2.17391,2.385774 -2.41267,5.579018 -0.22225,2.972425 -0.30714,3.126666 -6.19329,11.252951 -3.17445,4.382573 -5.02417,8.005675 -5.57978,10.929278 -0.22196,1.167927 -0.51601,2.1235 -0.65344,2.1235 -0.42838,0 0.0786,-2.516071 1.1487,-5.700977 1.18954,-3.540368 1.24336,-3.982727 0.44744,-3.677303 -0.45765,0.175617 -0.49528,0.121247 -0.17945,-0.259298 0.21979,-0.264827 0.28193,-0.620416 0.13809,-0.790194 -0.14384,-0.169778 0.0201,-0.09286 0.36437,0.170924 0.34423,0.263786 0.66173,0.417304 0.70555,0.341147 0.0438,-0.07615 0.34255,-0.614715 0.66384,-1.196799 0.3213,-0.582083 0.87692,-1.584949 1.23472,-2.228592 l 0.65055,-1.170259 -1.61481,-1.475574 c -2.43362,-2.223796 -4.61465,-2.886686 -9.49769,-2.886686 -3.703793,0 -4.241193,0.08596 -6.173613,0.987527 -1.16416,0.54314 -2.70628,1.394223 -3.42693,1.891294 -2.51043,1.731596 -5.89356,7.06706 -6.43923,10.155195 -0.13531,0.765793 -0.55047,1.779387 -0.92257,2.252437 -0.3721,0.473047 -0.67654,1.156176 -0.67654,1.518066 0,0.36189 -0.17677,0.65798 -0.39282,0.65798 -0.2358,0 -0.33073,-0.423047 -0.23749,-1.058333 0.14487,-0.987048 0.0796,-1.058334 -0.96905,-1.058334 -0.61842,0 -1.86119,0.10099 -2.761726,0.224424 -1.6087,0.220496 -1.64658,0.255545 -2.1659,2.004306 -0.65243,2.196963 -0.65428,2.310003 -0.0238,1.454669 0.4598,-0.623796 0.48763,-0.555322 0.31246,0.76878 -0.11757,0.888739 -0.0395,1.547975 0.2008,1.696516 0.26081,0.161191 0.39309,-0.179557 0.39309,-1.012596 0,-1.569999 0.62174,-1.66019 0.7714,-0.111905 0.15985,1.653625 1.33304,1.828395 1.377086,0.205144 l 0.0318,-1.172393 0.33105,1.146528 c 0.1847,0.639691 0.566,1.146527 0.86254,1.146527 0.41615,0 0.45224,-0.148078 0.1663,-0.682364 -0.51318,-0.958888 -0.45438,-1.890818 0.16971,-2.689793 0.496,-0.634996 0.50471,-0.614246 0.11976,0.285352 -0.30598,0.715052 -0.31325,1.193765 -0.0276,1.820615 0.36512,0.801349 0.51614,0.839396 2.61427,0.658654 2.8516,-0.245653 3.23399,-0.551677 2.96646,-2.37405 -0.19388,-1.320655 -0.16986,-1.376598 0.31907,-0.743348 0.66889,0.86632 0.67801,2.296484 0.0206,3.235032 -0.44068,0.629144 -0.44149,0.918774 -0.006,2.18234 0.5242,1.521512 0.41317,2.299352 -0.47599,3.334645 -0.50116,0.583527 -0.27713,0.617362 4.0876,0.617362 6.7462,0 6.91986,0.120053 7.52793,5.204243 0.20301,1.69732 0.43192,3.2885 0.50871,3.53595 0.10007,0.32249 0.76619,0.13398 2.352113,-0.66564 8.30336,-4.18659 14.23319,-11.08349 18.09094,-21.041334 0.54544,-1.407912 1.05196,-2.499586 1.1256,-2.425944 0.0737,0.07365 -0.3621,1.384322 -0.96832,2.912618 -3.96818,10.003843 -9.30704,16.209726 -17.89982,20.80677 -2.119363,1.13382 -2.537493,1.49837 -2.386063,2.08029 0.10097,0.38805 0.18576,0.98337 0.18841,1.32291 0.006,0.82539 0.26883,0.78871 2.882343,-0.40301 z m -0.30237,-16.971294 c 0,-1.067152 0.0661,-1.503715 0.14696,-0.970139 0.0808,0.533577 0.0808,1.406702 0,1.940278 -0.0808,0.533577 -0.14696,0.09701 -0.14696,-0.970139 z M 84.360857,60.32306 c 0,-0.879686 0.54439,-1.348143 0.89932,-0.773871 0.13337,0.215812 -0.0144,0.649295 -0.32841,0.963295 -0.52602,0.526027 -0.57091,0.511133 -0.57091,-0.189424 z m -5.26381,-0.3022 c 0.0169,-0.410968 0.10052,-0.494559 0.21313,-0.213137 0.10191,0.254659 0.0894,0.55893 -0.0278,0.676158 -0.11723,0.117225 -0.2006,-0.09114 -0.18529,-0.463021 z m 24.454513,-1.294648 c 0.25543,-2.153514 1.21877,-4.002892 2.89364,-5.555121 l 1.33228,-1.234722 -1.00332,1.234722 c -1.18292,1.455727 -2.64713,4.465993 -2.6597,5.468055 -0.005,0.388056 -0.17826,0.943681 -0.38532,1.234722 -0.27891,0.392025 -0.32493,0.09459 -0.17758,-1.147656 z m 16.49535,-6.084288 c -10e-4,-0.194028 0.21216,-0.908403 0.47368,-1.5875 0.26151,-0.679097 0.4804,-0.996597 0.48641,-0.705555 0.006,0.291041 -0.20714,1.005416 -0.47368,1.5875 -0.26653,0.582083 -0.48541,0.899583 -0.48641,0.705555 z M 87.120807,50.683373 c 0.28836,-0.779533 0.84513,-0.984568 1.04503,-0.384846 0.0652,0.195443 -0.20489,0.528398 -0.60009,0.739902 -0.64087,0.342985 -0.68897,0.304606 -0.44494,-0.355056 z m 33.959143,-1.216449 c 0.0367,-0.668238 0.62468,-1.793469 0.64516,-1.234722 0.0106,0.291042 -0.13449,0.767292 -0.32258,1.058333 -0.18809,0.291042 -0.33325,0.370417 -0.32258,0.176389 z M 90.358087,49.15189 c 0,-0.07626 0.24637,-0.233186 0.54749,-0.348738 0.31394,-0.12047 0.45555,-0.06133 0.33195,0.138645 -0.20717,0.335213 -0.87944,0.495811 -0.87944,0.210093 z m 13.405553,-1.272466 c -0.72656,-0.232685 -0.75764,-0.28769 -0.17639,-0.312212 0.38806,-0.01637 0.94368,0.124125 1.23472,0.312212 0.61812,0.399458 0.18898,0.399458 -1.05833,0 z m -8.532813,-0.240986 c 0.25466,-0.101907 0.55893,-0.08938 0.67616,0.02783 0.11722,0.117225 -0.0911,0.200604 -0.46302,0.185286 -0.41097,-0.01693 -0.49456,-0.10052 -0.21314,-0.213134 z m 2.80017,-0.370099 c 0.82462,-0.07427 2.174003,-0.07427 2.998613,0 0.82462,0.07427 0.14993,0.135043 -1.499303,0.135043 -1.64924,0 -2.32393,-0.06077 -1.49931,-0.135043 z m 7.320143,-0.09447 c -0.46522,-0.199912 -0.52531,-0.309792 -0.17639,-0.32258 0.29104,-0.01065 0.76729,0.134493 1.05834,0.32258 0.64486,0.416743 0.0879,0.416743 -0.88195,0 z m -8.731253,-0.939193 c 0.24254,-0.09786 0.63941,-0.09786 0.88195,0 0.24253,0.09786 0.0441,0.177937 -0.44098,0.177937 -0.48507,0 -0.6835,-0.08007 -0.44097,-0.177937 z m 6.019273,-0.0073 c 0.25466,-0.101907 0.55894,-0.08938 0.67616,0.02783 0.11723,0.117224 -0.0911,0.200604 -0.46302,0.185286 -0.41097,-0.01693 -0.49456,-0.100521 -0.21314,-0.213134 z m -3.719503,-0.356263 c 0.34324,-0.08944 0.81949,-0.08356 1.05833,0.01309 0.238843,0.09664 -0.042,0.169816 -0.62407,0.162627 -0.58208,-0.0072 -0.7775,-0.08625 -0.43426,-0.175698 z m 27.002833,-8.815997 c 0.25466,-0.101907 0.55894,-0.08938 0.67616,0.02783 0.11723,0.117228 -0.0911,0.200604 -0.46302,0.185286 -0.41097,-0.01693 -0.49456,-0.100521 -0.21314,-0.213134 z m 28.17699,42.283316 c 1.08414,-0.58325 1.9208,-0.519 3.68883,0.28326 1.96475,0.89152 3.70421,0.89545 5.1538,0.0116 0.95699,-0.58348 1.54403,-1.41497 0.99899,-1.41497 -0.0811,0 -0.39864,-0.0964 -0.70555,-0.21414 -0.38025,-0.14591 -0.56922,-0.005 -0.59319,0.44098 -0.025,0.46521 -0.10599,0.39946 -0.27952,-0.22684 -0.2037,-0.7352 -0.51303,-0.91314 -1.85896,-1.06943 -0.88803,-0.10312 -2.18132,-0.57581 -2.87398,-1.05043 -1.59656,-1.09398 -1.42517,-1.30842 0.33914,-0.42431 1.69593,0.84985 4.58181,1.27065 4.92343,0.71791 0.34481,-0.55792 -0.86164,-1.34874 -2.05759,-1.34874 -0.55123,0 -1.56909,-0.23685 -2.26192,-0.52633 -1.41497,-0.59122 -2.40814,-0.67065 -4.71488,-0.37711 l -1.5875,0.20202 1.23356,-0.56776 c 0.80528,-0.370643 1.81161,-0.512213 2.89852,-0.407773 1.89031,0.18163 1.92794,-0.24311 0.0671,-0.756916 -0.9513,-0.262668 -1.83777,-0.187279 -3.77337,0.320897 -2.49935,0.656179 -2.56317,0.655609 -5.27537,-0.04743 -1.87256,-0.48539 -3.33261,-0.650134 -4.59236,-0.518174 -2.12772,0.222882 -5.62669,-0.488999 -6.56146,-1.334953 -0.34799,-0.314925 -1.01708,-0.574308 -1.48687,-0.576407 -0.46979,-0.0021 -1.63346,-0.240228 -2.58593,-0.529167 -2.30575,-0.699473 -2.56512,-0.670196 -2.81303,0.317543 -0.11635,0.463592 -0.93295,1.80256 -1.81465,2.975487 -2.05057,2.727863 -1.93684,3.467343 0.74163,4.822533 l 1.91247,0.96762 3.42438,-0.61657 c 4.04454,-0.72824 7.25525,-0.55962 10.88127,0.57145 4.17058,1.30094 7.60328,1.43582 9.57303,0.37614 z m -24.08634,-4.11873 c -0.54025,-0.82453 -0.53512,-0.94509 0.0788,-1.852083 0.36117,-0.533577 0.87366,-1.44639 1.13889,-2.028473 0.27898,-0.612278 0.55293,-0.869992 0.64999,-0.611463 0.0923,0.24578 -0.16384,1.00892 -0.56915,1.695859 -0.94436,1.60057 -0.93166,2.44336 0.0471,3.12894 l 0.78405,0.54917 h -0.77591 c -0.43837,0 -1.02732,-0.38368 -1.3538,-0.88195 z m 24.48628,-0.25328 c 0.18813,-0.18813 0.63673,-0.27959 0.99689,-0.20325 0.485,0.10281 0.39629,0.19152 -0.34206,0.34206 -0.64375,0.13125 -0.87572,0.0821 -0.65483,-0.13881 z m -73.787933,4.50218 c -0.1084,-0.28248 -0.38361,-1.51279 -0.61158,-2.73402 -0.22796,-1.22124 -0.46878,-2.41887 -0.53514,-2.66141 -0.0762,-0.27836 -0.775176,-0.44097 -1.895606,-0.44097 -1.63305,0 -1.77497,0.067 -1.77497,0.83759 0,1.0123 0.88743,3.61152 1.60907,4.71289 0.40284,0.61481 0.85671,0.79952 1.964586,0.79952 1.1163,0 1.39634,-0.11565 1.24364,-0.5136 z m -2.294926,-1.58543 c 0.15159,-0.45478 0.63546,-0.53646 0.679096,-0.11465 0.0146,0.14067 -0.164046,0.31927 -0.396876,0.39688 -0.23283,0.0776 -0.35983,-0.0494 -0.28222,-0.28223 z m -0.70556,-2.46944 c 0.1516,-0.45478 0.63547,-0.53647 0.6791,-0.11465 0.0146,0.14067 -0.16404,0.31926 -0.39687,0.39687 -0.23284,0.0776 -0.35984,-0.0494 -0.28223,-0.28222 z m 47.572089,-1.10479 c 0,-0.20989 0.53463,-1.043323 1.18808,-1.85209 1.80456,-2.233482 2.00214,-2.751194 1.43856,-3.769339 -0.85889,-1.551647 -0.39573,-3.710397 1.05426,-4.913785 0.30384,-0.252159 0.55243,-0.88246 0.55243,-1.400669 0,-0.756384 -1.21253,-5.553279 -1.95123,-7.719307 -0.2273,-0.666496 -4.46956,4.332647 -5.63177,6.636572 -1.21414,2.406865 -4.69855,7.533827 -6.54855,9.635536 -0.76487,0.868937 -1.39067,1.67459 -1.39067,1.790336 0,0.115747 1.10091,0.21045 2.44648,0.21045 2.75839,0 4.25629,0.431453 4.25629,1.225996 0,0.42684 0.47343,0.5379 2.29306,0.5379 1.40898,0 2.29306,-0.14713 2.29306,-0.3816 z M 43.615029,72.22109 c 0.119916,-0.194028 1.002411,-0.352778 1.961099,-0.352778 0.958688,0 1.743064,-0.119062 1.743057,-0.264583 -1.8e-5,-0.434943 -2.406611,-2.219663 -3.513321,-2.605465 -1.853364,-0.646088 -3.867382,0.781996 -3.890186,2.758423 -0.0074,0.643092 3.329979,1.062058 3.699351,0.464403 z m -4.775648,-2.116666 c -0.004,-1.494522 -1.233808,-3.691255 -2.729921,-4.8762 -2.823954,-2.236612 -5.983409,-2.657345 -8.006268,-1.066165 -1.459918,1.148372 -1.13542,1.592258 1.312532,1.795427 3.924684,0.325734 7.401158,2.458353 8.433431,5.173433 0.273879,0.720358 0.400643,0.791347 0.665448,0.372664 0.179917,-0.28447 0.326066,-0.91409 0.324778,-1.399159 z m 98.633609,-1.214325 c 0.84694,-1.292592 0.55581,-2.504225 -0.58404,-2.430649 l -0.91703,0.05919 0.65733,-2.352248 c 1.25715,-4.49859 2.04837,-8.715833 2.05386,-10.947089 0.003,-1.234662 0.33969,-3.615912 0.74811,-5.291667 1.34925,-5.536025 0.32459,-9.690332 -2.72259,-11.038247 -2.03882,-0.901865 -3.09749,-0.658173 -5.08822,1.171251 -0.86615,0.795969 -2.41637,2.071821 -3.44493,2.835222 -2.17113,1.611422 -2.53962,2.375588 -2.53962,5.266658 v 2.117725 l 1.01822,-0.725036 c 0.6455,-0.459638 1.1016,-1.169455 1.24599,-1.939128 0.12527,-0.667752 0.55348,-1.582607 0.95158,-2.033012 0.64426,-0.728906 0.69847,-0.741366 0.4932,-0.113369 -0.51407,1.57274 -0.61049,2.645833 -0.23772,2.645833 0.21146,0 0.55439,-0.3175 0.76207,-0.705555 0.20768,-0.388056 0.55537,-0.705556 0.77264,-0.705556 0.22342,0 0.14266,0.278885 -0.18592,0.641957 -0.81905,0.905037 -1.99783,4.505777 -1.99783,6.102608 0,0.738346 0.4075,2.578805 0.90557,4.089911 0.57421,1.742129 0.97861,3.93296 1.10518,5.987267 0.19455,3.15777 0.22521,3.250409 1.21109,3.658771 0.55632,0.230434 1.01149,0.572036 1.01149,0.75911 0,0.187078 -0.69811,-0.05004 -1.55136,-0.526926 -1.63958,-0.916379 -2.27038,-0.838602 -2.37636,0.292999 -0.18422,1.967199 0.47718,2.543754 4.00891,3.494578 2.86837,0.772238 4.03963,0.693844 4.70038,-0.3146 z m -5.70295,-9.192619 c -0.0123,-4.186164 -0.009,-4.20466 0.31334,-1.659749 0.19288,1.52377 0.19794,3.250628 0.0124,4.233333 -0.25918,1.372856 -0.31549,0.927999 -0.32577,-2.573584 z m -0.61686,-6.036921 c -0.12411,-0.905453 -0.20419,-2.378184 -0.17797,-3.272733 0.0309,-1.053687 0.15423,-0.517825 0.35026,1.521657 0.32136,3.343416 0.20628,4.513044 -0.17229,1.751076 z m 0.12713,-8.389224 c 0,-0.334656 1.056,-0.503315 1.24424,-0.198727 0.11468,0.185554 -0.11836,0.337372 -0.51787,0.337372 -0.3995,0 -0.72637,-0.06239 -0.72637,-0.138645 z m 0.28663,-2.571785 c 0.25466,-0.101907 0.55893,-0.08938 0.67616,0.02783 0.11722,0.117228 -0.0911,0.200603 -0.46302,0.185286 -0.41097,-0.01693 -0.49456,-0.100521 -0.21314,-0.213135 z M 79.564437,69.186683 c 0.49219,-0.188874 0.49536,-0.294407 0.0289,-0.960441 -0.28826,-0.41154 -0.5071,-1.228866 -0.48632,-1.816287 0.0332,-0.937204 0.0789,-0.884375 0.37354,0.431274 0.26125,1.16658 0.4961,1.499306 1.0583,1.499306 0.5518,0 0.66122,-0.145881 0.46304,-0.617361 -0.54172,-1.288765 -0.54476,-2.051481 -0.0109,-2.734028 0.52292,-0.668591 0.53277,-0.65229 0.18801,0.311178 -0.40142,1.121809 -0.19908,2.185116 0.46133,2.42436 0.87104,0.315552 3.88714,-0.274737 4.23505,-0.828852 0.52378,-0.834235 0.0113,-2.344455 -1.02621,-3.024275 -0.78184,-0.512283 -1.13343,-0.538036 -2.46891,-0.180852 -1.64545,0.44009 -3.845186,0.48229 -5.604046,0.107506 -0.87424,-0.186285 -1.09306,-0.439833 -1.2579,-1.457565 -0.18925,-1.168443 -0.21347,-1.131877 -0.46906,0.708222 -0.14822,1.067153 -0.20664,2.575278 -0.12982,3.351389 l 0.13967,1.411111 0.28529,-1.146528 c 0.34608,-1.390854 1.04746,-1.550645 0.74412,-0.169523 -0.13536,0.616264 -0.0196,1.234979 0.31353,1.675694 0.49351,0.652907 0.53289,0.583103 0.60097,-1.065198 l 0.0729,-1.763889 0.13901,1.580578 c 0.19622,2.231034 0.83412,2.845735 2.349626,2.264181 z m 4.79642,-3.471161 c 0,-0.632304 0.58286,-1.020236 1.07547,-0.715789 0.25287,0.156284 0.2392,0.386101 -0.0432,0.726376 -0.53303,0.64226 -1.03227,0.637142 -1.03227,-0.01058 z M 67.251141,54.725934 c 0,-3.905624 0.1158,-4.21284 2.4423,-6.478989 2.03462,-1.981842 2.1247,-1.259064 0.11534,0.925516 l -1.49931,1.630045 0.0981,3.38147 c 0.10966,3.778091 0.46753,4.550734 1.51439,3.269562 0.52034,-0.636806 0.68052,-1.3846 0.68052,-3.177029 0,-2.031975 0.1527,-2.58935 1.14652,-4.184861 1.46647,-2.354308 1.96245,-2.401863 0.78339,-0.07511 -0.7337,1.447899 -0.88448,2.190927 -0.79969,3.94075 0.0585,1.206543 0.2807,2.214538 0.50452,2.28836 0.75104,0.247721 1.54026,-0.98293 1.54026,-2.40176 0,-1.666434 1.51805,-4.200571 2.51632,-4.200571 0.36228,0 0.65868,-0.151282 0.65868,-0.336179 0,-0.60349 -0.81105,-2.133265 -1.131,-2.133265 -0.1717,0 -0.68789,-0.375701 -1.14707,-0.834888 -0.88845,-0.888442 -1.97044,-1.258065 -4.24832,-1.451278 -0.77611,-0.06583 -1.81891,-0.226381 -2.31733,-0.356782 -0.76731,-0.200744 -1.06083,-0.02988 -1.91479,1.114736 -0.55471,0.743503 -1.61535,2.022965 -2.35697,2.843247 l -1.34841,1.491421 v 3.139687 c 0,2.318484 0.13436,3.2512 0.51371,3.566033 0.91339,0.758045 1.24992,0.02723 1.26268,-2.742025 0.0136,-2.942502 0.17263,-3.351946 2.25982,-5.816572 1.96838,-2.324325 2.01875,-1.762721 0.0578,0.644539 -1.60317,1.968063 -1.62458,2.02855 -1.62458,4.591234 0,3.22249 0.82497,5.336892 1.94028,4.972949 0.2037,-0.06647 0.35278,-1.592086 0.35278,-3.610236 z m -42.220918,1.169928 c 0.0656,-0.34464 -0.250357,-0.953241 -0.702127,-1.352445 -0.672631,-0.59437 -0.701258,-0.687341 -0.158055,-0.513337 0.729074,0.233546 2.80739,-0.892965 4.804711,-2.604301 1.866663,-1.599388 0.474063,-1.335535 -1.763889,0.334201 -1.112455,0.830001 -2.264591,1.401903 -2.797741,1.388748 -0.893196,-0.02205 -0.894841,-0.02702 -0.112676,-0.341408 0.575616,-0.231369 0.79375,-0.609607 0.79375,-1.376337 0,-1.356829 -0.575247,-1.637591 -3.904439,-1.905632 -3.745318,-0.301544 -4.209449,0.06154 -4.209449,3.292962 0,2.110595 0.102899,2.501508 0.78405,2.978609 0.431229,0.302041 1.08034,0.549169 1.442471,0.549169 0.58748,0 0.560018,-0.116946 -0.254884,-1.085402 -0.913616,-1.085769 -1.224958,-2.442376 -0.560526,-2.442376 0.194028,0 0.352778,0.311916 0.352778,0.693145 0,1.34039 2.107559,1.860377 3.271382,0.807131 0.656764,-0.594364 0.676668,-0.584909 0.556945,0.264583 -0.06998,0.496521 -0.470551,1.032944 -0.917911,1.229212 -1.365938,0.59927 -0.873099,0.92584 1.231294,0.815894 1.609505,-0.08409 2.049519,-0.234379 2.144316,-0.732416 z m -5.50482,-3.033452 c 0.06072,-0.315295 0.423553,-0.573264 0.806294,-0.573264 0.382741,0 0.745573,0.257969 0.806293,0.573264 0.07904,0.410415 -0.150007,0.573264 -0.806293,0.573264 -0.656287,0 -0.885333,-0.162849 -0.806294,-0.573264 z m -1.83954,-1.412014 c 0,-1.189186 0.897832,-1.570288 3.092479,-1.312658 2.217638,0.260326 3.339388,0.975932 2.63461,1.680708 -0.318963,0.318964 -0.628586,0.319553 -1.324396,0.0025 -1.111171,-0.506233 -2.871814,-0.540127 -3.167971,-0.06094 -0.372752,0.603126 -1.234722,0.387004 -1.234722,-0.309584 z m 8.711139,3.579491 c -0.08944,-0.343242 -0.168509,-0.147824 -0.175699,0.434259 -0.0072,0.582084 0.06599,0.862916 0.162627,0.624075 0.09663,-0.238841 0.102516,-0.715091 0.01307,-1.058334 z M 47.710218,54.38961 c 5.546302,-2.801257 8.044053,-6.049197 6.652123,-8.650044 -0.55797,-1.042561 -1.1324,-0.808327 -2.155667,0.879009 -0.513348,0.846487 -1.75285,2.186842 -2.754453,2.978563 -3.04285,2.405235 -9.502645,4.021924 -11.595322,2.901954 -0.948143,-0.507433 -1.121036,-0.487963 -1.121036,0.126234 0,1.023514 0.828223,2.292995 1.726667,2.646592 0.505541,0.198963 2.365128,0.297984 4.132411,0.220048 2.61652,-0.115386 3.56647,-0.320103 5.115277,-1.102356 z m 78.616232,-1.373156 c 1.07349,-1.560258 1.9597,-4.509699 1.62056,-5.393474 -0.14534,-0.378753 -0.45795,-0.284057 -1.3774,0.41724 -0.96418,0.735412 -1.23015,1.223571 -1.40464,2.578058 -0.11839,0.918979 -0.32377,2.290861 -0.4564,3.048635 -0.29568,1.689248 0.12429,1.520405 1.61788,-0.650459 z M 45.799337,50.721779 c 4.432671,-2.074298 6.805394,-4.706895 6.044946,-6.707021 -0.459426,-1.20838 -1.336975,-2.13299 -2.022125,-2.130559 -0.414472,0.0014 -0.577297,0.384094 -0.618162,1.452615 -0.07989,2.088939 -2.213148,4.190284 -5.485158,5.403106 -2.913394,1.079891 -3.605227,1.110558 -5.320884,0.235867 L 37.08864,48.308261 v 0.867107 c 0,1.183089 0.597627,2.205238 1.522367,2.603782 1.391056,0.599514 4.682165,0.115404 7.18833,-1.057371 z M 33.421501,48.306786 c 0.399606,-0.213864 0.951626,-0.669117 1.226708,-1.011678 0.400674,-0.498958 0.289651,-0.477629 -0.55818,0.10722 -0.582083,0.401531 -2.127175,1.082054 -3.433535,1.51227 -1.306361,0.430219 -2.735111,1.082167 -3.175,1.44878 -0.590722,0.492316 -0.01383,0.361457 2.206827,-0.500595 1.653644,-0.641935 3.333575,-1.342136 3.73318,-1.555997 z m -7.430854,1.359997 c -0.127894,-0.206935 -0.491633,-0.376248 -0.808308,-0.376248 -0.481529,0 -0.463776,0.08189 0.10846,0.500324 0.738915,0.540307 1.073769,0.480942 0.699848,-0.124076 z m 2.698269,-0.755575 c 1.413676,-0.461762 3.756224,-2.617936 3.319033,-3.054971 -0.14848,-0.148428 -2.043265,-0.265543 -4.210631,-0.260255 -3.804971,0.0093 -4.031725,0.05387 -6.585088,1.294825 l -2.644422,1.285208 1.411111,0.03076 c 2.082687,0.0454 5.946226,0.721332 6.33677,1.108633 0.186752,0.185197 0.504252,0.26568 0.705556,0.178851 0.201304,-0.08683 0.951756,-0.349204 1.667671,-0.583051 z m 14.971226,-0.890083 c 2.018933,-0.833371 3.483878,-2.058628 4.156788,-3.476675 0.583099,-1.228792 0.574904,-1.307422 -0.35131,-3.371303 -0.521582,-1.16224 -0.990075,-2.113167 -1.041093,-2.113167 -0.05102,0 -0.913903,0.552584 -1.917517,1.227967 -1.003614,0.675382 -2.448295,1.395871 -3.210408,1.601089 -1.44508,0.389117 -4.018012,2.719496 -4.427693,4.010282 -0.162521,0.51206 0.07875,0.973712 0.885691,1.694716 0.893265,0.798135 1.442801,0.990946 2.8243,0.990946 0.943384,0 2.329942,-0.253736 3.081242,-0.563855 z M 16.649847,47.491757 c 1.240531,-0.407247 3.030781,-1.133306 3.978332,-1.613468 2.46302,-1.248107 5.334361,-1.626291 9.130009,-1.202517 l 3.166179,0.353494 0.882505,-1.048802 c 0.48538,-0.576837 1.700153,-1.5944 2.699498,-2.261249 0.999346,-0.666848 2.988702,-2.396063 4.420796,-3.842695 2.56292,-2.588951 2.597538,-2.648211 2.204861,-3.774646 -0.219421,-0.629421 -0.398942,-1.676337 -0.398942,-2.326481 0,-1.839686 -0.698077,-1.389782 -0.765898,0.493615 -0.0332,0.921632 -0.07582,1.993195 -0.09474,2.38125 -0.02187,0.448487 -0.504201,0.926878 -1.323824,1.313004 -0.709182,0.334098 -1.499986,0.907524 -1.757341,1.274282 -0.257355,0.366759 -1.085384,1.085593 -1.840064,1.597413 -2.835734,1.923175 -5.999466,0.897739 -10.762828,-3.488474 -3.100364,-2.854889 -4.65234,-3.694836 -6.82697,-3.694836 -1.880425,0 -4.498613,1.532507 -6.967221,4.078132 -2.156059,2.223322 -4.8035713,4.068382 -6.7483153,4.702923 -1.858433,0.606376 -2.55038,1.526438 -2.480931,3.298818 0.117259,2.992518 2.717219,4.345739 8.5536213,4.451978 1.875495,0.03415 3.350344,-0.172749 4.931275,-0.691741 z M 6.4048187,45.929449 c -0.02927,-1.352765 2.150654,-2.544177 2.584838,-1.412713 0.259067,0.675118 -0.421475,1.088894 -0.939277,0.571094 -0.300528,-0.300528 -0.557523,-0.199428 -1.019751,0.401155 -0.339881,0.441617 -0.621495,0.639826 -0.62581,0.440464 z m 4.0117173,-0.6249 c 0.344649,-0.252014 0.755616,-1.006077 0.913259,-1.675695 l 0.286625,-1.217485 0.03611,1.252361 c 0.03804,1.319205 -0.458528,2.099028 -1.336594,2.099028 -0.4145633,0 -0.3932453,-0.0971 0.1006,-0.458209 z m 24.858686,0.256025 c 1.73319,-1.715629 2.067274,-2.181684 1.284252,-1.791568 -1.291414,0.643414 -4.743909,4.110418 -4.093214,4.110418 0.256509,0 1.52054,-1.043481 2.808962,-2.31885 z m 4.106474,-3.687385 c 1.985091,-0.619093 4.78857,-2.048461 5.766971,-2.940318 0.455443,-0.41516 1.117829,-1.319707 1.471965,-2.010107 0.587033,-1.144436 0.763101,-1.246628 1.99414,-1.157411 l 1.350257,0.09786 -1.39343,-0.351031 c -1.846703,-0.465217 -2.576332,-1.183971 -3.175264,-3.127934 -0.390864,-1.268624 -0.502705,-1.411609 -0.522013,-0.667369 -0.01351,0.520945 0.119472,1.326032 0.295522,1.789081 0.287172,0.755322 -0.0303,1.193938 -3.086805,4.26479 -1.873793,1.882584 -4.240336,3.978903 -5.258982,4.658487 -2.227333,1.485949 -2.441709,1.936668 -0.352778,0.741708 0.824618,-0.471717 2.134306,-1.055709 2.910417,-1.297753 z m 1.59542,-1.940807 c 1.322394,-1.593388 5.013064,-5.141232 5.177327,-4.976969 0.494637,0.494638 -0.353758,2.721107 -1.359277,3.567195 -1.718299,1.445852 -4.788976,2.579666 -3.81805,1.409774 z m 2.827626,-1.563621 c 0.67177,-0.574198 1.021514,-1.050448 0.777216,-1.058333 -0.244302,-0.0079 -0.942534,0.461913 -1.55163,1.043997 -1.430517,1.36708 -0.821383,1.378355 0.774414,0.01432 z M 145.5318,43.598307 c 1.13385,-0.516618 1.25343,-0.875358 1.63,-4.890191 0.17293,-1.843765 0.73081,-4.622302 1.23972,-6.174525 0.50891,-1.552222 1.06005,-4.113602 1.22476,-5.691956 0.20776,-1.991036 0.63144,-3.57981 1.38368,-5.188761 0.59633,-1.275465 1.08424,-2.687171 1.08424,-3.137124 0,-0.474527 0.46248,-1.223924 1.10126,-1.784439 0.93998,-0.824817 1.06836,-1.130831 0.87663,-2.089493 -0.33154,-1.657708 -0.87174,-1.765578 -2.60572,-0.520329 -1.71157,1.229158 -2.18814,1.905343 -2.2069,3.131272 -0.007,0.449318 -0.25596,1.213817 -0.55353,1.698886 -0.37875,0.617406 -0.4733,0.670313 -0.31521,0.176389 0.1242,-0.388055 0.35089,-1.370084 0.50377,-2.182286 0.21957,-1.166565 0.73297,-1.920595 2.44438,-3.590005 1.94689,-1.899121 2.16643,-2.257645 2.16643,-3.5379398 0,-1.884816 -0.84755,-2.402726 -2.17168,-1.327049 -1.99755,1.6227348 -3.41935,3.7417828 -3.82649,5.7029708 -0.22102,1.064634 -0.52912,1.935698 -0.68466,1.935698 -0.15554,0 -0.0122,-1.008045 0.31861,-2.2401 0.64724,-2.410815 2.00677,-4.3834078 4.28028,-6.2104538 1.58892,-1.276886 1.68275,-1.754658 0.58463,-2.976926 -1.19284,-1.327705 -2.1112,-1.331227 -2.39073,-0.0092 -0.13827,0.653962 -0.88482,1.690719 -1.87406,2.602569 -1.46004,1.34582 -1.64424,1.683084 -1.64424,3.0106018 0,0.913597 -0.25302,1.822183 -0.65061,2.33632 -1.2703,1.642681 -1.76746,3.894235 -1.97737,8.955214 -0.25231,6.08335 -0.41202,6.983253 -1.43533,8.087423 -0.74412,0.802924 -0.79546,1.103908 -0.6214,3.643436 0.15083,2.200553 0.0651,3.009176 -0.41792,3.9433 -0.52819,1.021398 -0.5502,1.388216 -0.16832,2.804629 0.51882,1.924311 1.18263,2.79109 2.62512,3.427826 0.58208,0.256935 1.09055,0.473371 1.12993,0.480966 0.0394,0.0076 0.4672,-0.166444 0.95073,-0.386754 z m -3.14095,-4.893267 c -0.84295,-0.93145 -0.46393,-1.262123 0.6272,-0.54719 0.84092,0.550993 2.02059,0.437762 2.02059,-0.193947 0,-0.173267 0.15377,-0.315034 0.34171,-0.315034 0.41206,0 0.0398,1.129506 -0.49237,1.493905 -0.69834,0.478179 -1.85111,0.276105 -2.49713,-0.437734 z m 8.29223,-28.7492258 c 0,-0.291041 0.0624,-0.529166 0.13865,-0.529166 0.0763,0 0.23002,0.238125 0.34171,0.529166 0.11168,0.2910418 0.0493,0.5291668 -0.13865,0.5291668 -0.18794,0 -0.34171,-0.238125 -0.34171,-0.5291668 z M 36.904879,37.761903 c 0.765122,-0.519914 1.196195,-1.010278 0.957936,-1.089699 -0.238259,-0.07942 -0.99169,0.345965 -1.674294,0.9453 -1.526953,1.340682 -1.154592,1.415743 0.716358,0.144399 z m -2.355526,0.09947 c 1.652256,-0.854413 2.153581,-1.726268 2.533682,-4.406303 0.477365,-3.365859 -0.220486,-5.169896 -2.516375,-6.505167 -1.894536,-1.101848 -9.219974,-3.235957 -12.230822,-3.563188 -3.69909,-0.402032 -6.767717,1.022031 -6.766093,3.139953 3.88e-4,0.522741 0.166566,0.384244 0.617361,-0.51456 0.339247,-0.676397 1.013688,-1.42812 1.498757,-1.670493 1.367953,-0.683523 4.425681,-0.532295 8.290278,0.410017 9.034529,2.202905 10.603522,3.419008 10.343698,8.01724 -0.124298,2.199765 -0.256699,2.595124 -1.116887,3.335026 -0.536734,0.461677 -1.421123,0.839414 -1.965311,0.839414 -1.039813,0 -3.011168,-1.160385 -4.792056,-2.820714 -2.26277,-2.10959 -6.879166,-4.260057 -6.879166,-3.204538 0,0.209444 0.340541,0.380807 0.756759,0.380807 0.828348,0 3.827707,1.756821 3.828721,2.242605 3.47e-4,0.166279 -0.276914,0.195822 -0.616135,0.06565 -0.792767,-0.304213 1.116346,1.725945 2.557043,2.71917 0.810635,0.558856 0.690237,0.344896 -0.514423,-0.914182 -0.865016,-0.904089 -1.414007,-1.643799 -1.219979,-1.643799 0.49638,0 3.382822,2.996487 3.12999,3.249319 -0.114294,0.114293 -0.01397,0.327607 0.222949,0.474028 0.294984,0.182312 0.339738,0.118953 0.141988,-0.201013 -0.219312,-0.354852 -0.126357,-0.398928 0.386465,-0.18325 0.819282,0.344568 3.103451,1.21002 3.25039,1.231543 0.05814,0.0085 0.534769,-0.206389 1.059166,-0.477565 z M 140.46126,36.743959 c 0.8641,-2.272767 0.10085,-5.526253 -1.52969,-6.520455 -0.96847,-0.590522 -3.41793,-0.97699 -3.41793,-0.539271 0,0.08209 0.46129,0.610536 1.02508,1.174327 1.1702,1.170202 1.93643,3.432554 1.45218,4.28767 -0.23299,0.411418 -0.0637,0.812541 0.63061,1.494446 1.21407,1.192332 1.42127,1.203967 1.83975,0.103283 z M 34.374379,35.875776 c 0.49977,-0.393114 1.010592,-1.035888 1.135165,-1.428382 0.297067,-0.935974 -0.568837,-2.224196 -1.852408,-2.755869 -0.66869,-0.276981 -1.130882,-0.808722 -1.350243,-1.553424 -0.479129,-1.626577 -1.975012,-2.287395 -3.515269,-1.552898 -1.101227,0.525139 -1.17395,0.512808 -1.899931,-0.322143 -1.655784,-1.904319 -4.10253,-1.689323 -6.354402,0.558362 l -1.245039,1.242725 2.494263,0.195133 c 2.252551,0.176222 2.713156,0.351648 4.753055,1.810239 1.242336,0.888309 2.576293,1.973857 2.964348,2.41233 0.606141,0.684891 3.088383,2.077505 3.744786,2.10094 0.119355,0.0043 0.625909,-0.313895 1.125675,-0.707013 z m -5.288977,-3.077601 c -0.370188,-0.339549 -0.469337,-0.480675 -0.22033,-0.313615 0.249007,0.167061 1.002781,0.239532 1.675053,0.161049 0.969328,-0.113164 1.143932,-0.04825 0.843609,0.313614 -0.528603,0.636927 -1.502772,0.568665 -2.298332,-0.161048 z M 28.470784,31.45006 c -0.961208,-0.961208 -0.426933,-2.267857 0.927301,-2.267857 0.818477,0 0.835633,1.051066 0.01764,1.080694 -0.453105,0.01641 -0.395461,0.111211 0.216657,0.356306 0.689765,0.276185 0.758565,0.424859 0.397776,0.859583 -0.554013,0.667545 -0.868903,0.661744 -1.559373,-0.02873 z m 11.704662,3.90406 c 0.63059,-0.126915 1.146528,-0.373488 1.146528,-0.54794 0,-0.174452 -0.386751,-0.140969 -0.859448,0.07441 -1.404444,0.639908 -1.962774,0.176135 -1.962774,-1.630367 0,-0.879215 0.15875,-1.598572 0.352777,-1.598572 0.194028,0 0.352778,0.555625 0.352778,1.234722 0,0.999537 0.134391,1.234722 0.705556,1.234722 0.388055,0 0.705555,-0.15875 0.705555,-0.352777 0,-0.194028 0.238125,-0.352778 0.529167,-0.352778 0.384503,0 0.529166,-0.396225 0.529166,-1.449355 0,-1.382536 -0.04204,-1.438803 -0.911944,-1.220472 -0.9975,0.250357 -2.263055,-0.02697 -2.263055,-0.495919 0,-0.162788 0.342325,-0.206458 0.760719,-0.09705 0.521211,0.1363 0.681263,0.07037 0.508346,-0.209416 -0.138804,-0.224592 -0.560504,-0.408349 -0.937109,-0.408349 -0.376604,0 -0.684734,-0.15875 -0.684734,-0.352777 0,-0.194028 0.238125,-0.352778 0.529166,-0.352778 1.611662,0 -0.498947,-2.36382 -2.960602,-3.315787 -2.165802,-0.837555 -11.276807,-3.042822 -12.366705,-2.99329 -0.715346,0.03251 -0.755418,0.07373 -0.194914,0.200482 0.388055,0.08776 2.451805,0.634448 4.586111,1.214867 8.842886,2.404803 10.128556,3.551993 10.088551,9.001916 -0.01961,2.67364 0.04288,2.972735 0.589189,2.819115 0.336133,-0.09452 1.127086,-0.275692 1.757676,-0.402608 z M 17.178783,28.917619 c -0.01215,-1.115659 0.105367,-2.425347 0.261143,-2.910416 l 0.28323,-0.881945 -0.724202,0.832832 c -0.823358,0.946862 -1.014762,3.850774 -0.300868,4.564668 0.232833,0.232834 0.441209,0.423333 0.463058,0.423333 0.02185,0 0.02979,-0.912812 0.01764,-2.028472 z m 23.980112,-0.380378 c -0.299854,-1.365212 -1.56222,-2.621151 -3.594961,-3.576652 -1.627945,-0.765224 -9.249785,-2.643709 -9.541812,-2.351682 -0.195499,0.195499 0.314213,0.347447 4.195148,1.250599 1.686373,0.392444 3.787944,1.052827 4.670164,1.467518 1.990379,0.935588 3.728984,2.85389 3.728984,4.114398 0,0.684402 0.105696,0.834529 0.388465,0.551759 0.227129,-0.227128 0.291091,-0.83181 0.154012,-1.45594 z m 2.094248,-0.486881 c 0.647149,-2.548737 2.614781,-5.536921 4.399703,-6.681705 1.66376,-1.067074 3.778497,-1.338751 4.534683,-0.582563 0.550954,0.550955 1.053281,0.05017 1.320352,-1.316302 0.23929,-1.224335 0.39243,-1.107689 -5.031828,-3.832724 -2.091478,-1.050716 -5.511627,-2.481024 -7.600322,-3.178461 -5.228043,-1.745696 -6.050305,-1.671833 -4.992553,0.448478 0.300905,0.603179 0.447555,1.257759 0.325885,1.454621 -0.292558,0.473375 0.838013,0.876193 4.282609,1.525873 2.017653,0.380546 3.398817,0.892433 4.76364,1.7655 1.489985,0.953132 2.06297,1.15074 2.548629,0.878953 0.344579,-0.192837 0.709358,-0.26776 0.810623,-0.166496 0.101261,0.101263 -0.455496,0.510421 -1.237248,0.90924 -0.781749,0.398818 -1.522476,0.888732 -1.646061,1.088698 -0.123585,0.199965 -0.389432,0.261765 -0.590765,0.137333 -0.235811,-0.14574 -0.195757,-0.331536 0.112571,-0.522164 0.804489,-0.497386 -0.429528,-1.386203 -2.377694,-1.712564 -1.553266,-0.260206 -1.603784,-0.295452 -0.49506,-0.345394 l 1.234722,-0.05562 -1.005078,-0.544615 c -0.676839,-0.366755 -1.685135,-0.506154 -3.087447,-0.426847 -1.493757,0.08448 -2.08219,-0.0069 -2.081728,-0.323206 3.53e-4,-0.317473 -0.814447,-0.440007 -2.909774,-0.437525 -2.354686,0.0028 -3.270046,0.170864 -4.793827,0.880228 -2.318284,1.07923 -3.827921,2.133102 -4.288574,2.993841 -0.305916,0.57161 -0.123916,0.728448 1.453191,1.252279 2.048383,0.680363 2.544554,0.396382 2.321813,-1.32888 -0.09961,-0.771577 -0.03055,-0.883913 0.349488,-0.568506 0.314569,0.26107 0.40034,0.783762 0.255394,1.55639 -0.208062,1.109068 -0.160101,1.174216 1.028624,1.397222 0.685771,0.128652 1.440441,0.114274 1.677034,-0.03195 0.262594,-0.162292 0.339281,-0.11879 0.19685,0.111668 -0.144289,0.233463 0.411738,0.515873 1.457075,0.740057 4.310715,0.924484 7.33843,3.05535 7.718502,5.432182 0.27861,1.742333 0.826287,1.532041 1.346571,-0.517043 z m -0.520058,-5.704128 c 0,-0.07326 0.277812,-0.351069 0.617361,-0.617361 0.559527,-0.43881 0.572004,-0.426332 0.133195,0.133193 -0.460859,0.587639 -0.750556,0.774516 -0.750556,0.484168 z m 8.837019,-2.491462 c -0.231873,-0.279393 -0.767249,-0.575274 -1.189722,-0.657513 l -0.768131,-0.149526 0.754669,-0.04804 c 0.415065,-0.02642 1.12944,0.264177 1.5875,0.645777 0.458058,0.381601 0.653832,0.699101 0.435053,0.705556 -0.218775,0.0065 -0.587491,-0.216858 -0.819369,-0.496252 z m -30.310493,7.538941 c 0.563099,-0.301361 0.620788,-0.479018 0.28639,-0.881944 -0.427293,-0.514856 -1.453755,-0.676688 -1.840301,-0.290142 -0.191933,0.191933 0.451189,1.549467 0.734048,1.549467 0.0631,0 0.432035,-0.169821 0.819863,-0.377381 z m 26.630153,-5.166867 c -0.316335,-0.316333 -2.334457,1.807839 -2.334457,2.457128 0,0.23624 0.587375,-0.157848 1.305278,-0.875751 0.717902,-0.717902 1.181033,-1.429522 1.029179,-1.581377 z m 8.531357,-0.286023 c 0.92733,-1.908722 0.9681,-2.487137 0.19619,-2.783345 -0.31881,-0.12234 -0.60031,-0.179012 -0.62554,-0.125938 -0.0252,0.05307 -0.39818,0.783902 -0.82875,1.624062 -0.59788,1.16664 -0.6972,1.687591 -0.42037,2.204861 0.53631,1.002112 0.82044,0.846437 1.67847,-0.91964 z M 23.405808,17.190422 c 0.925706,-0.990838 2.154121,-3.530441 1.707685,-3.530441 -0.494318,0 -2.542506,2.511957 -3.062039,3.755374 -0.266769,0.638469 -0.473978,1.761264 -0.460464,2.4951 l 0.02457,1.334248 0.4919,-1.595548 c 0.270546,-0.877552 0.854801,-1.983982 1.298346,-2.458733 z m 2.801525,0.96931 c 2.25471,-1.809086 3.771559,-2.41075 6.824363,-2.706909 1.824436,-0.176992 2.131681,-0.310746 2.225428,-0.968792 0.07563,-0.530867 -0.126651,-0.838166 -0.663973,-1.008706 -0.604542,-0.191874 -0.666606,-0.31247 -0.285151,-0.554065 0.383223,-0.242711 0.350989,-0.309965 -0.150597,-0.31421 -0.351,-0.003 -0.552715,-0.14369 -0.448254,-0.312707 0.382507,-0.618913 -2.751934,-0.738621 -3.676064,-0.140394 -0.82179,0.531981 -0.848921,0.530626 -0.397776,-0.01986 0.901524,-1.100033 -0.161402,-0.599001 -1.366113,0.643944 -0.658206,0.679098 -1.388451,1.234723 -1.622766,1.234723 -0.234314,0 -0.897304,1.128846 -1.473309,2.508547 -0.647674,1.551367 -1.14858,2.344647 -1.312757,2.079003 -0.35811,-0.579434 -0.870094,0.223554 -0.877432,1.376154 -0.0049,0.775686 0.04753,0.802798 0.611959,0.316233 0.339549,-0.292706 1.515148,-1.252539 2.612442,-2.132964 z m 8.411863,-6.948376 c 0,-0.182577 -0.15875,-0.43007 -0.352778,-0.549986 -0.194027,-0.119916 -0.352777,0.02946 -0.352777,0.331958 0,0.302492 0.15875,0.549986 0.352777,0.549986 0.194028,0 0.352778,-0.149381 0.352778,-0.331958 z m -3.915834,-1.106885 c 0.441629,-0.5973358 0.71923,-1.1697978 0.616889,-1.2721378 -0.24148,-0.241481 -1.992721,1.5068318 -1.992721,1.9893898 0,0.675091 0.563693,0.381225 1.375832,-0.717252 z m 1.977098,0.730796 c 0.120759,-0.195398 -0.03547,-0.453135 -0.347176,-0.572748 -0.675442,-0.259193 -1.051881,0.02643 -0.727205,0.551769 0.292939,0.473986 0.788426,0.483661 1.074381,0.02098 z m 16.71653,21.835841 c -0.612405,-0.612406 -0.703626,-0.999583 -0.514364,-2.183167 0.232367,-1.453139 1.525908,-4.12796 1.996281,-4.12796 0.140134,0 0.172381,0.315127 0.07166,0.700283 -0.100721,0.385156 -0.05823,0.980469 0.09444,1.322917 0.152661,0.342448 0.289616,1.098883 0.304348,1.680966 0.02113,0.834748 0.20307,1.083275 0.861222,1.176396 0.45894,0.06493 1.006627,-0.05413 1.217084,-0.264584 0.210453,-0.210455 0.50964,-0.382645 0.66487,-0.382645 0.56906,0 0.25548,0.678018 -0.803251,1.736752 -1.299647,1.299647 -2.802047,1.431287 -3.892292,0.341042 z m 2.866495,-4.216135 c -0.0028,-0.302963 0.331707,-0.912684 0.74373,-1.354937 0.668803,-0.717877 0.806366,-0.746856 1.282956,-0.270264 0.75702,0.757017 0.29928,1.762563 -0.663281,1.457059 -0.472129,-0.149849 -0.864058,-0.06057 -1.054668,0.240259 -0.244316,0.385581 -0.304383,0.37155 -0.308737,-0.07212 z"
       id="path327"
       inkscape:export-filename="path327.svg"
       inkscape:export-xdpi="300"
       inkscape:export-ydpi="300" /></g></svg>
